<?xml version="1.0" encoding="utf-8"?>
<!-- Generator: Adobe Illustrator 17.1.0, SVG Export Plug-In . SVG Version: 6.00 Build 0)  -->
<!DOCTYPE svg PUBLIC "-//W3C//DTD SVG 1.1//EN" "http://www.w3.org/Graphics/SVG/1.1/DTD/svg11.dtd">
<svg version="1.1" id="Layer_1" xmlns="http://www.w3.org/2000/svg" xmlns:xlink="http://www.w3.org/1999/xlink" x="0px" y="0px"
	 viewBox="0 0 240.382 234.283" enable-background="new 0 0 240.382 234.283" xml:space="preserve">
<g>
	<path fill="#FFFFFF" d="M0.011,2.792C0.111,1.887,0.21,0.982,0.318,0c79.949,0,159.913,0,239.983,0
		c0.021,0.451,0.058,0.873,0.058,1.295c0.01,77.142,0.017,154.284,0.022,231.426c0,1.556-0.198,1.686-2.139,1.455
		c-0.477-0.029-0.955-0.083-1.432-0.083c-77.641-0.004-155.283-0.004-232.924-0.001c-0.517,0-1.035,0.054-1.552,0.083
		c-0.115,0.03-0.229,0.084-0.344,0.088c-1.853,0.066-1.861,0.064-1.861-1.765C0.139,156.406,0.149,80.314,0.153,4.222
		c0-0.432-0.094-0.864-0.143-1.292c0.056-0.02,0.112-0.044,0.168-0.068C0.122,2.839,0.066,2.816,0.011,2.792z M222.172,18.098
		c-68.01,0-135.863,0-203.746,0c0,65.98,0,131.871,0,197.777c67.967,0,135.85,0,203.746,0
		C222.172,149.906,222.172,84.043,222.172,18.098z"/>
	<path fill="#FFFFFF" d="M0.011,2.792c0.056,0.023,0.111,0.046,0.167,0.069C0.122,2.886,0.067,2.909,0.01,2.93
		C-0.004,2.881-0.003,2.837,0.011,2.792z"/>
</g>
<g>
	<path fill="#FFFFFF" d="M79.192,135.461l-9.049,29.797H50.33L84.028,60.11h24.493l34.165,105.148h-20.593l-9.517-29.797H79.192z
		 M109.301,120.952l-8.269-25.897c-2.028-6.396-3.744-13.573-5.304-19.657h-0.312c-1.561,6.084-3.12,13.417-4.992,19.657
		l-8.112,25.897H109.301z"/>
	<path fill="#FFFFFF" d="M176.223,68.066c0,5.772-4.213,10.296-10.921,10.296c-6.396,0-10.608-4.524-10.608-10.296
		c0-5.929,4.368-10.453,10.765-10.453C172.01,57.614,176.067,62.138,176.223,68.066z M155.785,165.258V89.283h19.346v75.975H155.785
		z"/>
</g>
</svg>
