<?xml version="1.0" encoding="utf-8"?>
<!-- Generator: Adobe Illustrator 17.1.0, SVG Export Plug-In . SVG Version: 6.00 Build 0)  -->
<!DOCTYPE svg PUBLIC "-//W3C//DTD SVG 1.1//EN" "http://www.w3.org/Graphics/SVG/1.1/DTD/svg11.dtd">
<svg version="1.1" id="Layer_1" xmlns="http://www.w3.org/2000/svg" xmlns:xlink="http://www.w3.org/1999/xlink" x="0px" y="0px"
	 viewBox="0 0 240.382 234.283" enable-background="new 0 0 240.382 234.283" xml:space="preserve">
<g>
	<path fill="#FFFFFF" d="M0.011,2.792C0.111,1.887,0.21,0.982,0.318,0c79.949,0,159.913,0,239.983,0
		c0.021,0.451,0.058,0.873,0.058,1.295c0.01,77.142,0.017,154.284,0.022,231.426c0,1.556-0.198,1.686-2.139,1.455
		c-0.477-0.029-0.955-0.083-1.432-0.083c-77.641-0.004-155.283-0.004-232.924-0.001c-0.517,0-1.035,0.054-1.552,0.083
		c-0.115,0.03-0.229,0.084-0.344,0.088c-1.853,0.066-1.861,0.064-1.861-1.765C0.139,156.406,0.149,80.314,0.153,4.222
		c0-0.432-0.094-0.864-0.143-1.292c0.056-0.02,0.112-0.044,0.168-0.068C0.122,2.839,0.066,2.816,0.011,2.792z M222.172,18.098
		c-68.01,0-135.863,0-203.746,0c0,65.98,0,131.871,0,197.777c67.967,0,135.85,0,203.746,0
		C222.172,149.906,222.172,84.043,222.172,18.098z"/>
	<path fill="#FFFFFF" d="M0.011,2.792c0.056,0.023,0.111,0.046,0.167,0.069C0.122,2.886,0.067,2.909,0.01,2.93
		C-0.004,2.881-0.003,2.837,0.011,2.792z"/>
	<path fill="#FFFFFF" d="M147.795,83.216c0-0.491,0-0.961,0-1.431c0-6.758-0.001-13.516,0.001-20.273c0-1.71,0.302-2.01,2.029-2.011
		c5.598-0.003,11.196-0.001,16.795-0.001c2.156,0,2.241,0.082,2.24,2.204c-0.012,28.151-0.045,56.301-0.015,84.452
		c0.004,3.788,0.288,7.578,0.506,11.364c0.06,1.049-0.335,1.649-1.256,2.046c-5.526,2.381-11.253,4.14-17.199,4.991
		c-4.016,0.574-8.105,0.995-12.152,0.932c-8.748-0.135-16.894-2.401-23.822-8.053c-5.403-4.408-8.954-10.075-10.89-16.719
		c-3.044-10.447-3.47-20.974,0.257-31.317c5.116-14.201,15.014-23.208,29.958-26.254c4.239-0.864,8.556-1.114,12.826,0.066
		C147.253,83.26,147.46,83.216,147.795,83.216z M147.834,124.166c-0.022,0-0.044,0-0.066,0c0-7.677-0.016-15.354,0.021-23.031
		c0.004-0.878-0.27-1.295-1.101-1.524c-4.354-1.196-8.63-1.122-12.72,0.914c-4.946,2.462-7.694,6.734-9.219,11.851
		c-2.051,6.885-1.942,13.874-0.574,20.86c0.794,4.057,2.319,7.84,5.193,10.894c4.752,5.048,10.715,5.668,17.14,4.477
		c1.009-0.187,1.359-0.581,1.352-1.651C147.81,139.36,147.834,131.763,147.834,124.166z"/>
	<path fill="#FFFFFF" d="M71.235,111.702c0-16.68,0-33.359,0-50.039c0-1.914,0.239-2.161,2.121-2.162
		c5.64-0.002,11.28-0.003,16.92,0.001c1.822,0.001,2.051,0.237,2.051,2.095c0.001,33.399,0.001,66.799,0,100.198
		c0,1.96-0.352,2.315-2.295,2.317c-5.48,0.004-10.96,0.005-16.44-0.001c-2.045-0.002-2.356-0.325-2.356-2.37
		C71.235,145.061,71.235,128.382,71.235,111.702z"/>
</g>
</svg>
