<?xml version="1.0" encoding="utf-8"?>
<!-- Generator: Adobe Illustrator 17.1.0, SVG Export Plug-In . SVG Version: 6.00 Build 0)  -->
<!DOCTYPE svg PUBLIC "-//W3C//DTD SVG 1.1//EN" "http://www.w3.org/Graphics/SVG/1.1/DTD/svg11.dtd">
<svg version="1.1" id="Layer_1" xmlns="http://www.w3.org/2000/svg" xmlns:xlink="http://www.w3.org/1999/xlink" x="0px" y="0px"
	 viewBox="0 0 240.382 234.283" enable-background="new 0 0 240.382 234.283" xml:space="preserve">
<g>
	<path fill="#FFFFFF" d="M0.011,2.792C0.111,1.887,0.21,0.982,0.318,0c79.949,0,159.913,0,239.983,0
		c0.021,0.451,0.058,0.873,0.058,1.295c0.01,77.142,0.017,154.284,0.022,231.426c0,1.556-0.198,1.686-2.139,1.455
		c-0.477-0.029-0.955-0.083-1.432-0.083c-77.641-0.004-155.283-0.004-232.924-0.001c-0.517,0-1.035,0.054-1.552,0.083
		c-0.115,0.03-0.229,0.084-0.344,0.088c-1.853,0.066-1.861,0.064-1.861-1.765C0.139,156.406,0.149,80.314,0.153,4.222
		c0-0.432-0.094-0.864-0.143-1.292c0.056-0.02,0.112-0.044,0.168-0.068C0.122,2.839,0.066,2.816,0.011,2.792z M222.172,18.098
		c-68.01,0-135.863,0-203.746,0c0,65.98,0,131.871,0,197.777c67.967,0,135.85,0,203.746,0
		C222.172,149.906,222.172,84.043,222.172,18.098z"/>
	<path fill="#FFFFFF" d="M0.011,2.792c0.056,0.023,0.111,0.046,0.167,0.069C0.122,2.886,0.067,2.909,0.01,2.93
		C-0.004,2.881-0.003,2.837,0.011,2.792z"/>
</g>
<g>
	<path fill="#FFFFFF" d="M57.131,61.514c6.864-1.248,16.38-2.184,29.329-2.184c14.04,0,24.337,2.964,31.045,8.58
		c6.24,5.148,10.296,13.417,10.296,23.245c0,9.984-3.119,18.252-9.048,23.869c-7.645,7.644-19.657,11.232-33.229,11.232
		c-3.588,0-6.864-0.156-9.36-0.624v39.625H57.131V61.514z M76.163,110.5c2.341,0.624,5.46,0.78,9.36,0.78
		c14.353,0,23.089-7.02,23.089-19.345c0-11.701-8.112-17.941-21.372-17.941c-5.305,0-9.049,0.468-11.077,0.937V110.5z"/>
	<path fill="#FFFFFF" d="M139.341,147.629c4.368,2.652,12.637,5.46,19.501,5.46c8.424,0,12.168-3.432,12.168-8.424
		c0-5.148-3.12-7.8-12.48-11.076c-14.82-5.148-21.061-13.261-20.904-22.153c0-13.416,11.076-23.869,28.705-23.869
		c8.424,0,15.757,2.184,20.124,4.524l-3.744,13.573c-3.275-1.872-9.359-4.368-16.068-4.368c-6.864,0-10.608,3.276-10.608,7.957
		c0,4.836,3.589,7.176,13.261,10.608c13.729,4.992,20.125,12.012,20.281,23.245c0,13.729-10.765,23.713-30.89,23.713
		c-9.204,0-17.473-2.184-23.089-5.304L139.341,147.629z"/>
</g>
</svg>
