<?xml version="1.0" encoding="utf-8"?>
<!-- Generator: Adobe Illustrator 16.0.0, SVG Export Plug-In . SVG Version: 6.00 Build 0)  -->
<!DOCTYPE svg PUBLIC "-//W3C//DTD SVG 1.1//EN" "http://www.w3.org/Graphics/SVG/1.1/DTD/svg11.dtd">
<svg version="1.1" id="Layer_1" xmlns="http://www.w3.org/2000/svg" xmlns:xlink="http://www.w3.org/1999/xlink" x="0px" y="0px"
	 width="711px" height="254.5px" viewBox="0 0 711 254.5" enable-background="new 0 0 711 254.5" xml:space="preserve">
<g id="Layer_1_1_">
</g>
<g>
	<path fill="#FFFFFF" d="M293.16,218.843c-1.041-0.821-1.932-1.341-3.294-1.34c-33.097,0.035-66.192,0.017-99.288,0.06
		c-1.495,0.002-1.952-0.352-1.949-1.902c0.049-24.697,0.047-49.395,0.002-74.092c-0.003-1.5,0.37-1.944,1.913-1.94
		c24.397,0.049,48.794-0.035,73.19,0.113c3.424,0.022,6.049-0.668,8.168-3.413c0.689-0.893,1.091-1.662,1.085-2.784
		c-0.037-6.549-0.213-13.106,0.062-19.644c0.141-3.337-0.639-5.855-3.301-7.904c-0.962-0.74-1.786-1.222-3.042-1.22
		c-25.347,0.034-50.693,0.025-76.04,0.025c-2.001,0-2.002-0.001-2.002-1.931c0-21.398,0-42.795,0-64.192c0-1.969,0-1.97,1.963-1.97
		c29.696,0,59.393-0.076,89.088,0.095c3.739,0.022,6.579-0.772,8.748-3.772c0.03-0.04,0.084-0.066,0.102-0.109
		c0.251-0.617,0.709-1.233,0.713-1.853c0.049-7.849,0.052-15.698-0.003-23.547c-0.005-0.66-0.362-1.446-0.807-1.952
		c-1.218-1.386-2.569-2.654-3.868-3.969c-59.9,0-119.8,0-179.701-0.001c-1.405,0.192-2.805,0.48-4.217,0.56
		c-12.166,0.694-23.94,3.037-34.948,8.451c-13.917,6.844-23.657,17.477-28.553,32.28c-2.918,8.821-3.677,17.942-3.302,27.206
		c0.298,7.337,1.45,14.497,3.682,21.485c2.817,8.817,7.282,16.71,13.38,23.671c7.681,8.77,17.038,15.298,27.438,20.42
		c0.487,0.241,0.958,0.514,1.583,0.852c-1.57,2.226-3.078,4.377-4.602,6.52c-14.303,20.1-28.611,40.193-42.911,60.294
		c-9.493,13.347-18.973,26.7-28.468,40.045c-0.313,0.441-0.72,0.815-1.083,1.22c0,0.5,0,1,0,1.5c0.23,0.229,0.53,0.42,0.68,0.693
		c0.765,1.396,1.54,2.793,2.214,4.234c0.491,1.051,1.192,1.394,2.351,1.391c13.798-0.039,27.597-0.036,41.395-0.005
		c1.113,0.001,1.821-0.312,2.464-1.271c12.839-19.154,25.716-38.285,38.58-57.424c9.522-14.167,19.046-28.332,28.531-42.522
		c0.58-0.868,1.184-1.183,2.191-1.177c7.149,0.033,14.298,0.017,21.447,0.019c1.954,0.001,1.954,0.005,1.954,2.013
		c0,30.396,0.055,60.792-0.077,91.188c-0.014,3.362,0.62,5.952,3.344,8.032c1.048,0.801,1.963,1.332,3.323,1.318
		c11.345-0.102,22.691-0.183,34.036-0.189c33.846-0.023,67.692-0.067,101.537,0.078c3.557,0.016,6.344-0.658,8.353-3.597
		c0.523-0.764,1.053-1.728,1.065-2.606c0.089-6.549-0.134-13.105,0.125-19.645C296.542,223.354,295.754,220.891,293.16,218.843z
		 M142.872,115.204c-8.192,0.004-16.372-0.138-24.471-1.524c-9.391-1.606-18.357-4.344-25.969-10.376
		c-6.138-4.865-10.079-11.179-12.195-18.719c-1.849-6.589-2.296-13.306-1.653-20.038c0.991-10.375,6.62-17.62,15.956-22.046
		c5.826-2.763,12.039-4.127,18.401-4.936c10.051-1.278,20.15-0.713,30.231-0.88c1.323-0.022,1.56,0.53,1.557,1.701
		c-0.033,12.543-0.02,25.086-0.02,37.629c-0.001,12.443-0.025,24.887,0.033,37.329C144.749,114.819,144.296,115.204,142.872,115.204
		z"/>
	<path fill="#FFFFFF" d="M656.809,5.078c-1.231-1.091-2.346-2.312-3.511-3.478c-9.799,0-19.599,0-29.398,0
		c-1.135,1.233-2.346,2.405-3.369,3.722c-0.531,0.685-1.041,1.625-1.042,2.45c-0.048,55.846-0.041,111.692-0.043,167.539
		c0,0.383-0.036,0.766-0.334,1.27c-1.098-1.671-2.196-3.339-3.287-5.014c-12.613-19.359-25.225-38.723-37.837-58.083
		c-14.849-22.789-29.694-45.579-44.549-68.363c-9.32-14.295-18.658-28.578-27.985-42.869c-0.134-0.205-0.237-0.433-0.354-0.65
		c-12.898,0-25.8,0-38.698,0c-1.199,1.261-2.478,2.458-3.565,3.809c-0.544,0.674-1.046,1.626-1.048,2.454
		c-0.052,31.243-0.043,62.487-0.043,93.731c0,1.989,0.003,1.989-1.923,1.989c-33.843,0-67.687,0-101.529,0
		c-2.058,0-2.057-0.001-2.057-2.026c0-31.194,0.009-62.388-0.046-93.582c-0.001-0.872-0.516-1.879-1.084-2.587
		c-1.09-1.354-2.392-2.536-3.605-3.79c-11.401,0-22.8,0-34.2,0c-1.201,1.254-2.483,2.443-3.571,3.791
		c-0.542,0.672-1.028,1.633-1.028,2.463c-0.046,78.942-0.009,157.884-0.144,236.824c-0.006,3.85,2.494,5.34,4.581,7.453
		c0.279,0.282,0.942,0.254,1.429,0.255c10.548,0.015,21.098,0.031,31.646-0.032c0.794-0.004,1.668-0.482,2.359-0.953
		c3.091-2.103,3.768-5.027,3.751-8.735c-0.15-34.097-0.088-68.192-0.089-102.289c0-1.927,0-1.928,2.006-1.928
		c33.896,0,67.793,0.009,101.688-0.029c1.433-0.002,1.85,0.366,1.848,1.829c-0.042,35.348-0.04,70.691,0.009,106.039
		c0.002,0.834,0.424,1.865,1,2.469c3.666,3.844,3.699,3.812,9.036,3.812c8.349,0,16.706-0.209,25.044,0.093
		c3.905,0.14,5.815-2.267,7.978-4.61c0.327-0.355,0.26-1.138,0.26-1.723c0.014-14.999,0.011-29.997,0.01-44.995
		c0-1.958,0-1.961,2.001-1.961c24.646,0,49.295,0.013,73.94-0.036c1.408-0.002,2.188,0.521,2.902,1.62
		c9.193,14.142,18.413,28.267,27.625,42.394c1.691,2.594,3.409,5.168,5.058,7.785c0.565,0.896,1.227,1.286,2.315,1.282
		c11.099-0.035,22.197-0.005,33.296-0.058c0.708-0.002,1.573-0.354,2.094-0.836c3.729-3.453,3.707-3.478,3.707-8.559
		c0-78.292-0.002-156.583,0.025-234.875C658.075,6.833,657.752,5.913,656.809,5.078z M558.335,164.502
		c-17.194,0.005-34.389-0.003-51.582,0.023c-1.175,0.002-1.671-0.26-1.669-1.577c0.033-27.091,0.021-54.181,0.021-81.271
		c0-0.188,0.035-0.376,0.056-0.563c0.13-0.058,0.26-0.117,0.39-0.175c18.092,27.711,36.186,55.423,54.462,83.419
		C559.251,164.426,558.793,164.502,558.335,164.502z"/>
	<path fill="#FFFFFF" d="M708.076,222.929c0-0.946,0-1.893,0-2.839c0-1.258-0.322-2.178-1.267-3.013
		c-1.23-1.091-2.346-2.312-3.511-3.478H673.9c-1.135,1.231-2.346,2.403-3.369,3.721c-0.531,0.686-1.041,1.625-1.042,2.451
		c-0.003,3.289-0.004,6.578-0.005,9.869c0.024,0.001,0.05,0.002,0.074,0.003c0,5.345,0.001,10.689-0.001,16.032
		c0,1.258,0.322,2.176,1.267,3.012c1.23,1.09,2.346,2.312,3.511,3.479h29.399c1.134-1.232,2.345-2.405,3.368-3.723
		c0.531-0.685,1.041-1.625,1.042-2.448c0.008-7.688,0.008-15.378,0.009-23.067C708.128,222.928,708.102,222.929,708.076,222.929z"/>
</g>
<g id="Layer_4" display="none">
	
		<image display="inline" overflow="visible" enable-background="new    " width="230" height="82" xlink:href="5AAE106FEF03FC3C.png"  transform="matrix(3.0754 0 0 3.0754 1.5 1.2441)">
	</image>
</g>
</svg>
